<mxfile host="Electron" modified="2024-12-09T13:15:38.157Z" agent="Mozilla/5.0 (Windows NT 10.0; Win64; x64) AppleWebKit/537.36 (KHTML, like Gecko) draw.io/24.2.5 Chrome/120.0.6099.109 Electron/28.1.0 Safari/537.36" etag="yiug0tpWN44NgJkKzNo6" version="24.2.5" type="device" pages="2">
  <diagram id="C5RBs43oDa-KdzZeNtuy" name="Q35 : START">
    <mxGraphModel dx="1195" dy="712" grid="1" gridSize="10" guides="1" tooltips="1" connect="1" arrows="1" fold="1" page="1" pageScale="1" pageWidth="827" pageHeight="1169" math="0" shadow="0">
      <root>
        <mxCell id="WIyWlLk6GJQsqaUBKTNV-0" />
        <mxCell id="WIyWlLk6GJQsqaUBKTNV-1" parent="WIyWlLk6GJQsqaUBKTNV-0" />
        <mxCell id="_gv9dCKtyLKJaSsT8e1p-0" value="TextOutput1" style="swimlane;fontStyle=0;align=center;verticalAlign=top;childLayout=stackLayout;horizontal=1;startSize=26;horizontalStack=0;resizeParent=1;resizeLast=0;collapsible=1;marginBottom=0;rounded=0;shadow=0;strokeWidth=1;" vertex="1" parent="WIyWlLk6GJQsqaUBKTNV-1">
          <mxGeometry x="480" y="80" width="160" height="64" as="geometry">
            <mxRectangle x="130" y="380" width="160" height="26" as="alternateBounds" />
          </mxGeometry>
        </mxCell>
        <mxCell id="_gv9dCKtyLKJaSsT8e1p-3" value="" style="line;html=1;strokeWidth=1;align=left;verticalAlign=middle;spacingTop=-1;spacingLeft=3;spacingRight=3;rotatable=0;labelPosition=right;points=[];portConstraint=eastwest;" vertex="1" parent="_gv9dCKtyLKJaSsT8e1p-0">
          <mxGeometry y="26" width="160" height="8" as="geometry" />
        </mxCell>
        <mxCell id="_gv9dCKtyLKJaSsT8e1p-6" value="GraphicalOutput1" style="swimlane;fontStyle=0;align=center;verticalAlign=top;childLayout=stackLayout;horizontal=1;startSize=26;horizontalStack=0;resizeParent=1;resizeLast=0;collapsible=1;marginBottom=0;rounded=0;shadow=0;strokeWidth=1;" vertex="1" parent="WIyWlLk6GJQsqaUBKTNV-1">
          <mxGeometry x="480" y="180" width="160" height="64" as="geometry">
            <mxRectangle x="130" y="380" width="160" height="26" as="alternateBounds" />
          </mxGeometry>
        </mxCell>
        <mxCell id="_gv9dCKtyLKJaSsT8e1p-7" value="" style="line;html=1;strokeWidth=1;align=left;verticalAlign=middle;spacingTop=-1;spacingLeft=3;spacingRight=3;rotatable=0;labelPosition=right;points=[];portConstraint=eastwest;" vertex="1" parent="_gv9dCKtyLKJaSsT8e1p-6">
          <mxGeometry y="26" width="160" height="8" as="geometry" />
        </mxCell>
        <mxCell id="_gv9dCKtyLKJaSsT8e1p-9" value="Point1" style="swimlane;fontStyle=0;align=center;verticalAlign=top;childLayout=stackLayout;horizontal=1;startSize=26;horizontalStack=0;resizeParent=1;resizeLast=0;collapsible=1;marginBottom=0;rounded=0;shadow=0;strokeWidth=1;" vertex="1" parent="WIyWlLk6GJQsqaUBKTNV-1">
          <mxGeometry x="160" y="280" width="160" height="70" as="geometry">
            <mxRectangle x="340" y="380" width="170" height="26" as="alternateBounds" />
          </mxGeometry>
        </mxCell>
        <mxCell id="_gv9dCKtyLKJaSsT8e1p-11" value="" style="line;html=1;strokeWidth=1;align=left;verticalAlign=middle;spacingTop=-1;spacingLeft=3;spacingRight=3;rotatable=0;labelPosition=right;points=[];portConstraint=eastwest;" vertex="1" parent="_gv9dCKtyLKJaSsT8e1p-9">
          <mxGeometry y="26" width="160" height="8" as="geometry" />
        </mxCell>
        <mxCell id="_gv9dCKtyLKJaSsT8e1p-17" value="display on" style="rounded=0;orthogonalLoop=1;jettySize=auto;html=1;dashed=1;exitX=1;exitY=0.5;exitDx=0;exitDy=0;endArrow=open;endFill=0;endSize=12;" edge="1" parent="WIyWlLk6GJQsqaUBKTNV-1" source="_gv9dCKtyLKJaSsT8e1p-13">
          <mxGeometry relative="1" as="geometry">
            <mxPoint x="480" y="220" as="targetPoint" />
          </mxGeometry>
        </mxCell>
        <mxCell id="_gv9dCKtyLKJaSsT8e1p-13" value="PointAggregation1" style="swimlane;fontStyle=0;align=center;verticalAlign=top;childLayout=stackLayout;horizontal=1;startSize=26;horizontalStack=0;resizeParent=1;resizeLast=0;collapsible=1;marginBottom=0;rounded=0;shadow=0;strokeWidth=1;" vertex="1" parent="WIyWlLk6GJQsqaUBKTNV-1">
          <mxGeometry x="160" y="120" width="160" height="70" as="geometry">
            <mxRectangle x="340" y="380" width="170" height="26" as="alternateBounds" />
          </mxGeometry>
        </mxCell>
        <mxCell id="_gv9dCKtyLKJaSsT8e1p-14" value="" style="line;html=1;strokeWidth=1;align=left;verticalAlign=middle;spacingTop=-1;spacingLeft=3;spacingRight=3;rotatable=0;labelPosition=right;points=[];portConstraint=eastwest;" vertex="1" parent="_gv9dCKtyLKJaSsT8e1p-13">
          <mxGeometry y="26" width="160" height="8" as="geometry" />
        </mxCell>
        <mxCell id="_gv9dCKtyLKJaSsT8e1p-15" value="aggregation of" style="endArrow=diamondThin;endFill=0;endSize=24;html=1;rounded=0;exitX=0.5;exitY=0;exitDx=0;exitDy=0;entryX=0.5;entryY=1;entryDx=0;entryDy=0;" edge="1" parent="WIyWlLk6GJQsqaUBKTNV-1" source="_gv9dCKtyLKJaSsT8e1p-9" target="_gv9dCKtyLKJaSsT8e1p-13">
          <mxGeometry width="160" relative="1" as="geometry">
            <mxPoint x="-20" y="220" as="sourcePoint" />
            <mxPoint x="390" y="250" as="targetPoint" />
          </mxGeometry>
        </mxCell>
        <mxCell id="_gv9dCKtyLKJaSsT8e1p-16" value="display on" style="endArrow=open;endSize=12;dashed=1;html=1;rounded=0;exitX=1;exitY=0.5;exitDx=0;exitDy=0;entryX=0;entryY=0.5;entryDx=0;entryDy=0;" edge="1" parent="WIyWlLk6GJQsqaUBKTNV-1" source="_gv9dCKtyLKJaSsT8e1p-13" target="_gv9dCKtyLKJaSsT8e1p-0">
          <mxGeometry width="160" relative="1" as="geometry">
            <mxPoint x="280" y="170" as="sourcePoint" />
            <mxPoint x="440" y="170" as="targetPoint" />
          </mxGeometry>
        </mxCell>
        <mxCell id="_gv9dCKtyLKJaSsT8e1p-18" value="Predator" style="swimlane;fontStyle=0;align=center;verticalAlign=top;childLayout=stackLayout;horizontal=1;startSize=26;horizontalStack=0;resizeParent=1;resizeLast=0;collapsible=1;marginBottom=0;rounded=0;shadow=0;strokeWidth=1;" vertex="1" parent="WIyWlLk6GJQsqaUBKTNV-1">
          <mxGeometry x="160" y="400" width="160" height="70" as="geometry">
            <mxRectangle x="340" y="380" width="170" height="26" as="alternateBounds" />
          </mxGeometry>
        </mxCell>
        <mxCell id="_gv9dCKtyLKJaSsT8e1p-19" value="" style="line;html=1;strokeWidth=1;align=left;verticalAlign=middle;spacingTop=-1;spacingLeft=3;spacingRight=3;rotatable=0;labelPosition=right;points=[];portConstraint=eastwest;" vertex="1" parent="_gv9dCKtyLKJaSsT8e1p-18">
          <mxGeometry y="26" width="160" height="8" as="geometry" />
        </mxCell>
        <mxCell id="_gv9dCKtyLKJaSsT8e1p-20" value="Prey" style="swimlane;fontStyle=0;align=center;verticalAlign=top;childLayout=stackLayout;horizontal=1;startSize=26;horizontalStack=0;resizeParent=1;resizeLast=0;collapsible=1;marginBottom=0;rounded=0;shadow=0;strokeWidth=1;" vertex="1" parent="WIyWlLk6GJQsqaUBKTNV-1">
          <mxGeometry x="480" y="400" width="160" height="70" as="geometry">
            <mxRectangle x="340" y="380" width="170" height="26" as="alternateBounds" />
          </mxGeometry>
        </mxCell>
        <mxCell id="_gv9dCKtyLKJaSsT8e1p-21" value="" style="line;html=1;strokeWidth=1;align=left;verticalAlign=middle;spacingTop=-1;spacingLeft=3;spacingRight=3;rotatable=0;labelPosition=right;points=[];portConstraint=eastwest;" vertex="1" parent="_gv9dCKtyLKJaSsT8e1p-20">
          <mxGeometry y="26" width="160" height="8" as="geometry" />
        </mxCell>
        <mxCell id="_gv9dCKtyLKJaSsT8e1p-22" value="hunt&lt;br&gt;escape" style="endArrow=none;startArrow=none;endFill=0;startFill=0;html=1;rounded=0;exitX=1;exitY=0.5;exitDx=0;exitDy=0;entryX=0;entryY=0.5;entryDx=0;entryDy=0;endSize=12;startSize=12;" edge="1" parent="WIyWlLk6GJQsqaUBKTNV-1" source="_gv9dCKtyLKJaSsT8e1p-18" target="_gv9dCKtyLKJaSsT8e1p-20">
          <mxGeometry width="160" relative="1" as="geometry">
            <mxPoint x="280" y="400" as="sourcePoint" />
            <mxPoint x="440" y="400" as="targetPoint" />
          </mxGeometry>
        </mxCell>
        <mxCell id="_gv9dCKtyLKJaSsT8e1p-23" value="Q35 : start" style="text;align=center;fontStyle=1;verticalAlign=middle;spacingLeft=3;spacingRight=3;strokeColor=none;rotatable=0;points=[[0,0.5],[1,0.5]];portConstraint=eastwest;html=1;" vertex="1" parent="WIyWlLk6GJQsqaUBKTNV-1">
          <mxGeometry x="160" y="40" width="80" height="26" as="geometry" />
        </mxCell>
      </root>
    </mxGraphModel>
  </diagram>
  <diagram name="Q35 : TARGET" id="x1TVQZB6K8Zii4OtJYfK">
    <mxGraphModel dx="1434" dy="854" grid="1" gridSize="10" guides="1" tooltips="1" connect="1" arrows="1" fold="1" page="1" pageScale="1" pageWidth="827" pageHeight="1169" math="0" shadow="0">
      <root>
        <mxCell id="fo7etrAs726pXB6VazFA-0" />
        <mxCell id="fo7etrAs726pXB6VazFA-1" parent="fo7etrAs726pXB6VazFA-0" />
        <mxCell id="fo7etrAs726pXB6VazFA-4" value="GraphicalOutput2" style="swimlane;fontStyle=0;align=center;verticalAlign=top;childLayout=stackLayout;horizontal=1;startSize=26;horizontalStack=0;resizeParent=1;resizeLast=0;collapsible=1;marginBottom=0;rounded=0;shadow=0;strokeWidth=1;" vertex="1" parent="fo7etrAs726pXB6VazFA-1">
          <mxGeometry x="480" y="164" width="160" height="64" as="geometry">
            <mxRectangle x="130" y="380" width="160" height="26" as="alternateBounds" />
          </mxGeometry>
        </mxCell>
        <mxCell id="fo7etrAs726pXB6VazFA-5" value="" style="line;html=1;strokeWidth=1;align=left;verticalAlign=middle;spacingTop=-1;spacingLeft=3;spacingRight=3;rotatable=0;labelPosition=right;points=[];portConstraint=eastwest;rounded=0;" vertex="1" parent="fo7etrAs726pXB6VazFA-4">
          <mxGeometry y="26" width="160" height="8" as="geometry" />
        </mxCell>
        <mxCell id="fo7etrAs726pXB6VazFA-6" value="Animal" style="swimlane;fontStyle=0;align=center;verticalAlign=top;childLayout=stackLayout;horizontal=1;startSize=26;horizontalStack=0;resizeParent=1;resizeLast=0;collapsible=1;marginBottom=0;rounded=0;shadow=0;strokeWidth=1;" vertex="1" parent="fo7etrAs726pXB6VazFA-1">
          <mxGeometry x="160" y="321" width="160" height="70" as="geometry">
            <mxRectangle x="340" y="380" width="170" height="26" as="alternateBounds" />
          </mxGeometry>
        </mxCell>
        <mxCell id="fo7etrAs726pXB6VazFA-7" value="" style="line;html=1;strokeWidth=1;align=left;verticalAlign=middle;spacingTop=-1;spacingLeft=3;spacingRight=3;rotatable=0;labelPosition=right;points=[];portConstraint=eastwest;rounded=0;" vertex="1" parent="fo7etrAs726pXB6VazFA-6">
          <mxGeometry y="26" width="160" height="8" as="geometry" />
        </mxCell>
        <mxCell id="fo7etrAs726pXB6VazFA-8" value="display on" style="rounded=0;orthogonalLoop=1;jettySize=auto;html=1;dashed=1;exitX=1;exitY=0.5;exitDx=0;exitDy=0;endArrow=open;endFill=0;endSize=12;entryX=0;entryY=0.5;entryDx=0;entryDy=0;" edge="1" parent="fo7etrAs726pXB6VazFA-1" source="fo7etrAs726pXB6VazFA-9" target="fo7etrAs726pXB6VazFA-4">
          <mxGeometry relative="1" as="geometry">
            <mxPoint x="480" y="261" as="targetPoint" />
          </mxGeometry>
        </mxCell>
        <mxCell id="fo7etrAs726pXB6VazFA-9" value="Jungle" style="swimlane;fontStyle=0;align=center;verticalAlign=top;childLayout=stackLayout;horizontal=1;startSize=26;horizontalStack=0;resizeParent=1;resizeLast=0;collapsible=1;marginBottom=0;rounded=0;shadow=0;strokeWidth=1;" vertex="1" parent="fo7etrAs726pXB6VazFA-1">
          <mxGeometry x="160" y="161" width="160" height="70" as="geometry">
            <mxRectangle x="340" y="380" width="170" height="26" as="alternateBounds" />
          </mxGeometry>
        </mxCell>
        <mxCell id="fo7etrAs726pXB6VazFA-10" value="" style="line;html=1;strokeWidth=1;align=left;verticalAlign=middle;spacingTop=-1;spacingLeft=3;spacingRight=3;rotatable=0;labelPosition=right;points=[];portConstraint=eastwest;rounded=0;" vertex="1" parent="fo7etrAs726pXB6VazFA-9">
          <mxGeometry y="26" width="160" height="8" as="geometry" />
        </mxCell>
        <mxCell id="fo7etrAs726pXB6VazFA-11" value="" style="endArrow=diamondThin;endFill=0;endSize=24;html=1;rounded=0;exitX=0.5;exitY=0;exitDx=0;exitDy=0;entryX=0.5;entryY=1;entryDx=0;entryDy=0;" edge="1" parent="fo7etrAs726pXB6VazFA-1" source="fo7etrAs726pXB6VazFA-6" target="fo7etrAs726pXB6VazFA-9">
          <mxGeometry width="160" relative="1" as="geometry">
            <mxPoint x="-20" y="261" as="sourcePoint" />
            <mxPoint x="390" y="291" as="targetPoint" />
          </mxGeometry>
        </mxCell>
        <mxCell id="i_uhqKLeWlCGz6DYtzGY-0" value="is child of" style="rounded=0;orthogonalLoop=1;jettySize=auto;html=1;entryX=0.5;entryY=1;entryDx=0;entryDy=0;endArrow=block;endFill=0;endSize=14;" edge="1" parent="fo7etrAs726pXB6VazFA-1" source="fo7etrAs726pXB6VazFA-13" target="fo7etrAs726pXB6VazFA-6">
          <mxGeometry relative="1" as="geometry" />
        </mxCell>
        <mxCell id="fo7etrAs726pXB6VazFA-13" value="Predator" style="swimlane;fontStyle=0;align=center;verticalAlign=top;childLayout=stackLayout;horizontal=1;startSize=26;horizontalStack=0;resizeParent=1;resizeLast=0;collapsible=1;marginBottom=0;rounded=0;shadow=0;strokeWidth=1;" vertex="1" parent="fo7etrAs726pXB6VazFA-1">
          <mxGeometry x="39" y="461" width="160" height="70" as="geometry">
            <mxRectangle x="340" y="380" width="170" height="26" as="alternateBounds" />
          </mxGeometry>
        </mxCell>
        <mxCell id="fo7etrAs726pXB6VazFA-14" value="" style="line;html=1;strokeWidth=1;align=left;verticalAlign=middle;spacingTop=-1;spacingLeft=3;spacingRight=3;rotatable=0;labelPosition=right;points=[];portConstraint=eastwest;rounded=0;" vertex="1" parent="fo7etrAs726pXB6VazFA-13">
          <mxGeometry y="26" width="160" height="8" as="geometry" />
        </mxCell>
        <mxCell id="fo7etrAs726pXB6VazFA-15" value="Prey" style="swimlane;fontStyle=0;align=center;verticalAlign=top;childLayout=stackLayout;horizontal=1;startSize=26;horizontalStack=0;resizeParent=1;resizeLast=0;collapsible=1;marginBottom=0;rounded=0;shadow=0;strokeWidth=1;" vertex="1" parent="fo7etrAs726pXB6VazFA-1">
          <mxGeometry x="280" y="461" width="160" height="70" as="geometry">
            <mxRectangle x="340" y="380" width="170" height="26" as="alternateBounds" />
          </mxGeometry>
        </mxCell>
        <mxCell id="fo7etrAs726pXB6VazFA-16" value="" style="line;html=1;strokeWidth=1;align=left;verticalAlign=middle;spacingTop=-1;spacingLeft=3;spacingRight=3;rotatable=0;labelPosition=right;points=[];portConstraint=eastwest;rounded=0;" vertex="1" parent="fo7etrAs726pXB6VazFA-15">
          <mxGeometry y="26" width="160" height="8" as="geometry" />
        </mxCell>
        <mxCell id="fo7etrAs726pXB6VazFA-17" value="" style="endArrow=open;startArrow=open;endFill=0;startFill=0;html=1;rounded=0;exitX=1;exitY=0.5;exitDx=0;exitDy=0;entryX=0;entryY=0.5;entryDx=0;entryDy=0;endSize=12;startSize=12;" edge="1" parent="fo7etrAs726pXB6VazFA-1" source="fo7etrAs726pXB6VazFA-13" target="fo7etrAs726pXB6VazFA-15">
          <mxGeometry width="160" relative="1" as="geometry">
            <mxPoint x="120" y="461" as="sourcePoint" />
            <mxPoint x="280" y="461" as="targetPoint" />
          </mxGeometry>
        </mxCell>
        <mxCell id="fo7etrAs726pXB6VazFA-18" value="Q35 : target" style="text;align=center;fontStyle=1;verticalAlign=middle;spacingLeft=3;spacingRight=3;strokeColor=none;rotatable=0;points=[[0,0.5],[1,0.5]];portConstraint=eastwest;html=1;rounded=0;" vertex="1" parent="fo7etrAs726pXB6VazFA-1">
          <mxGeometry x="160" y="40" width="80" height="26" as="geometry" />
        </mxCell>
        <mxCell id="i_uhqKLeWlCGz6DYtzGY-1" value="is child of" style="rounded=0;orthogonalLoop=1;jettySize=auto;html=1;endArrow=block;endFill=0;endSize=14;exitX=0.5;exitY=0;exitDx=0;exitDy=0;" edge="1" parent="fo7etrAs726pXB6VazFA-1" source="fo7etrAs726pXB6VazFA-15">
          <mxGeometry relative="1" as="geometry">
            <mxPoint x="169" y="471" as="sourcePoint" />
            <mxPoint x="240" y="391" as="targetPoint" />
          </mxGeometry>
        </mxCell>
        <mxCell id="i_uhqKLeWlCGz6DYtzGY-2" value="GraphicalOutput1" style="swimlane;fontStyle=0;align=center;verticalAlign=top;childLayout=stackLayout;horizontal=1;startSize=26;horizontalStack=0;resizeParent=1;resizeLast=0;collapsible=1;marginBottom=0;rounded=0;shadow=0;strokeWidth=1;" vertex="1" parent="fo7etrAs726pXB6VazFA-1">
          <mxGeometry x="480" y="40" width="160" height="64" as="geometry">
            <mxRectangle x="130" y="380" width="160" height="26" as="alternateBounds" />
          </mxGeometry>
        </mxCell>
        <mxCell id="i_uhqKLeWlCGz6DYtzGY-3" value="" style="line;html=1;strokeWidth=1;align=left;verticalAlign=middle;spacingTop=-1;spacingLeft=3;spacingRight=3;rotatable=0;labelPosition=right;points=[];portConstraint=eastwest;rounded=0;" vertex="1" parent="i_uhqKLeWlCGz6DYtzGY-2">
          <mxGeometry y="26" width="160" height="8" as="geometry" />
        </mxCell>
        <mxCell id="i_uhqKLeWlCGz6DYtzGY-4" value="is child of" style="rounded=0;orthogonalLoop=1;jettySize=auto;html=1;entryX=0.5;entryY=1;entryDx=0;entryDy=0;endArrow=block;endFill=0;endSize=14;exitX=0.5;exitY=0;exitDx=0;exitDy=0;" edge="1" parent="fo7etrAs726pXB6VazFA-1" source="fo7etrAs726pXB6VazFA-4" target="i_uhqKLeWlCGz6DYtzGY-2">
          <mxGeometry relative="1" as="geometry">
            <mxPoint x="590" y="330" as="sourcePoint" />
            <mxPoint x="671" y="260" as="targetPoint" />
          </mxGeometry>
        </mxCell>
        <mxCell id="Kc3UD-sIuehPm3kkiFbA-0" value="Water " style="swimlane;fontStyle=0;align=center;verticalAlign=top;childLayout=stackLayout;horizontal=1;startSize=26;horizontalStack=0;resizeParent=1;resizeLast=0;collapsible=1;marginBottom=0;rounded=0;shadow=0;strokeWidth=1;" vertex="1" parent="fo7etrAs726pXB6VazFA-1">
          <mxGeometry x="520" y="360" width="160" height="70" as="geometry">
            <mxRectangle x="340" y="380" width="170" height="26" as="alternateBounds" />
          </mxGeometry>
        </mxCell>
        <mxCell id="Kc3UD-sIuehPm3kkiFbA-1" value="" style="line;html=1;strokeWidth=1;align=left;verticalAlign=middle;spacingTop=-1;spacingLeft=3;spacingRight=3;rotatable=0;labelPosition=right;points=[];portConstraint=eastwest;rounded=0;" vertex="1" parent="Kc3UD-sIuehPm3kkiFbA-0">
          <mxGeometry y="26" width="160" height="8" as="geometry" />
        </mxCell>
        <mxCell id="Kc3UD-sIuehPm3kkiFbA-2" value="à intégrer à l&#39;application :&amp;nbsp;" style="text;align=left;fontStyle=1;verticalAlign=middle;spacingLeft=3;spacingRight=3;strokeColor=none;rotatable=0;points=[[0,0.5],[1,0.5]];portConstraint=eastwest;html=1;rounded=0;" vertex="1" parent="fo7etrAs726pXB6VazFA-1">
          <mxGeometry x="520" y="300" width="170" height="41" as="geometry" />
        </mxCell>
        <mxCell id="Kc3UD-sIuehPm3kkiFbA-3" value="Archaeplastida " style="swimlane;fontStyle=0;align=center;verticalAlign=top;childLayout=stackLayout;horizontal=1;startSize=26;horizontalStack=0;resizeParent=1;resizeLast=0;collapsible=1;marginBottom=0;rounded=0;shadow=0;strokeWidth=1;" vertex="1" parent="fo7etrAs726pXB6VazFA-1">
          <mxGeometry x="520" y="460" width="160" height="70" as="geometry">
            <mxRectangle x="340" y="380" width="170" height="26" as="alternateBounds" />
          </mxGeometry>
        </mxCell>
        <mxCell id="Kc3UD-sIuehPm3kkiFbA-4" value="" style="line;html=1;strokeWidth=1;align=left;verticalAlign=middle;spacingTop=-1;spacingLeft=3;spacingRight=3;rotatable=0;labelPosition=right;points=[];portConstraint=eastwest;rounded=0;" vertex="1" parent="Kc3UD-sIuehPm3kkiFbA-3">
          <mxGeometry y="26" width="160" height="8" as="geometry" />
        </mxCell>
        <mxCell id="Kc3UD-sIuehPm3kkiFbA-5" value="" style="rounded=0;whiteSpace=wrap;html=1;fillColor=none;fontColor=#ffffff;strokeColor=#314354;dashed=1;" vertex="1" parent="fo7etrAs726pXB6VazFA-1">
          <mxGeometry x="480" y="290.5" width="250" height="299.5" as="geometry" />
        </mxCell>
      </root>
    </mxGraphModel>
  </diagram>
</mxfile>
